{
    "asset" : {
        "generator" : "Khronos glTF Blender I/O v1.5.17",
        "version" : "2.0"
    },
    "scene" : 0,
    "scenes" : [
        {
            "name" : "Scene",
            "nodes" : [
                4
            ]
        }
    ],
    "nodes" : [
        {
            "mesh" : 0,
            "name" : "Cube.002",
            "translation" : [
                0.5302477478981018,
                -1.2315702438354492,
                -0.1652669906616211
            ]
        },
        {
            "mesh" : 1,
            "name" : "Plane",
            "translation" : [
                1.2716864347457886,
                0,
                -0.003644019365310669
            ]
        },
        {
            "mesh" : 2,
            "name" : "Sphere",
            "translation" : [
                1.3131282329559326,
                0,
                0.05053713917732239
            ]
        },
        {
            "children" : [
                0,
                1,
                2
            ],
            "mesh" : 3,
            "name" : "Cube.001",
            "translation" : [
                -0.6850533485412598,
                -0.08322715759277344,
                0.1652669906616211
            ]
        },
        {
            "children" : [
                3
            ],
            "mesh" : 4,
            "name" : "Cube",
            "translation" : [
                0,
                1.344041347503662,
                0
            ]
        }
    ],
    "materials" : [
        {
            "doubleSided" : true,
            "name" : "metal",
            "pbrMetallicRoughness" : {
                "baseColorFactor" : [
                    0.800000011920929,
                    0.800000011920929,
                    0.800000011920929,
                    1
                ],
                "roughnessFactor" : 0.2909091114997864
            }
        },
        {
            "doubleSided" : true,
            "name" : "wood",
            "pbrMetallicRoughness" : {
                "baseColorFactor" : [
                    0.020212193951010704,
                    0.0002676406584214419,
                    0,
                    1
                ],
                "metallicFactor" : 0,
                "roughnessFactor" : 0.5
            }
        }
    ],
    "meshes" : [
        {
            "name" : "Cube.002",
            "primitives" : [
                {
                    "attributes" : {
                        "POSITION" : 0,
                        "NORMAL" : 1,
                        "TEXCOORD_0" : 2
                    },
                    "indices" : 3,
                    "material" : 0
                }
            ]
        },
        {
            "name" : "Plane",
            "primitives" : [
                {
                    "attributes" : {
                        "POSITION" : 4,
                        "NORMAL" : 5,
                        "TEXCOORD_0" : 6
                    },
                    "indices" : 7,
                    "material" : 0
                }
            ]
        },
        {
            "name" : "Sphere.001",
            "primitives" : [
                {
                    "attributes" : {
                        "POSITION" : 8,
                        "NORMAL" : 9,
                        "TEXCOORD_0" : 10
                    },
                    "indices" : 11,
                    "material" : 0
                }
            ]
        },
        {
            "name" : "Cube.001",
            "primitives" : [
                {
                    "attributes" : {
                        "POSITION" : 12,
                        "NORMAL" : 13,
                        "TEXCOORD_0" : 14
                    },
                    "indices" : 15,
                    "material" : 1
                }
            ]
        },
        {
            "name" : "Cube",
            "primitives" : [
                {
                    "attributes" : {
                        "POSITION" : 16,
                        "NORMAL" : 17,
                        "TEXCOORD_0" : 18
                    },
                    "indices" : 19,
                    "material" : 1
                }
            ]
        }
    ],
    "accessors" : [
        {
            "bufferView" : 0,
            "componentType" : 5126,
            "count" : 36,
            "max" : [
                0.7879181504249573,
                1.2366080284118652,
                0.20658527314662933
            ],
            "min" : [
                0.7778427004814148,
                1.2265324592590332,
                0.16674424707889557
            ],
            "type" : "VEC3"
        },
        {
            "bufferView" : 1,
            "componentType" : 5126,
            "count" : 36,
            "type" : "VEC3"
        },
        {
            "bufferView" : 2,
            "componentType" : 5126,
            "count" : 36,
            "type" : "VEC2"
        },
        {
            "bufferView" : 3,
            "componentType" : 5123,
            "count" : 96,
            "type" : "SCALAR"
        },
        {
            "bufferView" : 4,
            "componentType" : 5126,
            "count" : 96,
            "max" : [
                0.09476062655448914,
                0.18952128291130066,
                0.015023447573184967
            ],
            "min" : [
                -0.09476062655448914,
                -0.18952128291130066,
                -0.015023447573184967
            ],
            "type" : "VEC3"
        },
        {
            "bufferView" : 5,
            "componentType" : 5126,
            "count" : 96,
            "type" : "VEC3"
        },
        {
            "bufferView" : 6,
            "componentType" : 5126,
            "count" : 96,
            "type" : "VEC2"
        },
        {
            "bufferView" : 7,
            "componentType" : 5123,
            "count" : 564,
            "type" : "SCALAR"
        },
        {
            "bufferView" : 8,
            "componentType" : 5126,
            "count" : 559,
            "max" : [
                0.028192898258566856,
                0.02819289080798626,
                0.028192900121212006
            ],
            "min" : [
                -0.028192885220050812,
                -0.02819289080798626,
                -0.02819289080798626
            ],
            "type" : "VEC3"
        },
        {
            "bufferView" : 9,
            "componentType" : 5126,
            "count" : 559,
            "type" : "VEC3"
        },
        {
            "bufferView" : 10,
            "componentType" : 5126,
            "count" : 559,
            "type" : "VEC2"
        },
        {
            "bufferView" : 11,
            "componentType" : 5123,
            "count" : 2880,
            "type" : "SCALAR"
        },
        {
            "bufferView" : 12,
            "componentType" : 5126,
            "count" : 384,
            "max" : [
                1.3701066970825195,
                1.2849918603897095,
                0
            ],
            "min" : [
                -9.297595227053534e-08,
                -1.2849916219711304,
                -0.1218000203371048
            ],
            "type" : "VEC3"
        },
        {
            "bufferView" : 13,
            "componentType" : 5126,
            "count" : 384,
            "type" : "VEC3"
        },
        {
            "bufferView" : 14,
            "componentType" : 5126,
            "count" : 384,
            "type" : "VEC2"
        },
        {
            "bufferView" : 15,
            "componentType" : 5123,
            "count" : 564,
            "type" : "SCALAR"
        },
        {
            "bufferView" : 16,
            "componentType" : 5126,
            "count" : 550,
            "max" : [
                0.780979335308075,
                1.3682187795639038,
                0.1652669906616211
            ],
            "min" : [
                -0.779938817024231,
                -1.3682188987731934,
                -0.1652669906616211
            ],
            "type" : "VEC3"
        },
        {
            "bufferView" : 17,
            "componentType" : 5126,
            "count" : 550,
            "type" : "VEC3"
        },
        {
            "bufferView" : 18,
            "componentType" : 5126,
            "count" : 550,
            "type" : "VEC2"
        },
        {
            "bufferView" : 19,
            "componentType" : 5123,
            "count" : 1956,
            "type" : "SCALAR"
        }
    ],
    "bufferViews" : [
        {
            "buffer" : 0,
            "byteLength" : 432,
            "byteOffset" : 0
        },
        {
            "buffer" : 0,
            "byteLength" : 432,
            "byteOffset" : 432
        },
        {
            "buffer" : 0,
            "byteLength" : 288,
            "byteOffset" : 864
        },
        {
            "buffer" : 0,
            "byteLength" : 192,
            "byteOffset" : 1152
        },
        {
            "buffer" : 0,
            "byteLength" : 1152,
            "byteOffset" : 1344
        },
        {
            "buffer" : 0,
            "byteLength" : 1152,
            "byteOffset" : 2496
        },
        {
            "buffer" : 0,
            "byteLength" : 768,
            "byteOffset" : 3648
        },
        {
            "buffer" : 0,
            "byteLength" : 1128,
            "byteOffset" : 4416
        },
        {
            "buffer" : 0,
            "byteLength" : 6708,
            "byteOffset" : 5544
        },
        {
            "buffer" : 0,
            "byteLength" : 6708,
            "byteOffset" : 12252
        },
        {
            "buffer" : 0,
            "byteLength" : 4472,
            "byteOffset" : 18960
        },
        {
            "buffer" : 0,
            "byteLength" : 5760,
            "byteOffset" : 23432
        },
        {
            "buffer" : 0,
            "byteLength" : 4608,
            "byteOffset" : 29192
        },
        {
            "buffer" : 0,
            "byteLength" : 4608,
            "byteOffset" : 33800
        },
        {
            "buffer" : 0,
            "byteLength" : 3072,
            "byteOffset" : 38408
        },
        {
            "buffer" : 0,
            "byteLength" : 1128,
            "byteOffset" : 41480
        },
        {
            "buffer" : 0,
            "byteLength" : 6600,
            "byteOffset" : 42608
        },
        {
            "buffer" : 0,
            "byteLength" : 6600,
            "byteOffset" : 49208
        },
        {
            "buffer" : 0,
            "byteLength" : 4400,
            "byteOffset" : 55808
        },
        {
            "buffer" : 0,
            "byteLength" : 3912,
            "byteOffset" : 60208
        }
    ],
    "buffers" : [
        {
            "byteLength" : 64120,
            "uri" : "data:application/octet-stream;base64,"
        }
    ]
}
